<?xml version="1.0" encoding="UTF-8"?>
<svg id="Layer_1" xmlns="http://www.w3.org/2000/svg" viewBox="0 0 648 216">
  <defs>
    <style>
      .cls-1 {
        fill: none;
        stroke: #fff;
        stroke-linecap: round;
        stroke-linejoin: round;
        stroke-width: 9px;
      }
    </style>
  </defs>
  <path class="cls-1" d="M90,144h53.41c15.24,0,27.59-12.35,27.59-27.59v-7.73c0-24.15-28.84-36.65-46.46-20.13l-51.08,47.89c-17.62,16.52-46.46,4.03-46.46-20.13v-7.68c0-21.18,22.89-34.47,41.28-23.95l21.72,12.41"/>
  <path class="cls-1" d="M261,144v-27c0-19.88-16.12-36-36-36h0c-19.88,0-36,16.12-36,36v27s72-18,72-18"/>
  <path class="cls-1" d="M279,144v-63h49.5c12.43,0,22.5,10.07,22.5,22.5h0c0,12.43-10.07,22.5-22.5,22.5h-31.5l54,18"/>
  <path class="cls-1" d="M369,81v63h40.5c17.4,0,31.5-14.1,31.5-31.5h0c0-17.4-14.1-31.5-31.5-31.5h-40.5Z"/>
  <rect class="cls-1" x="459" y="81" width="72" height="63" rx="31.5" ry="31.5"/>
  <path class="cls-1" d="M549,144v-54.49c0-8.35,10.68-11.82,15.59-5.07l40.81,56.12c4.91,6.75,15.59,3.28,15.59-5.07v-9.49"/>
</svg>