<?xml version="1.0" encoding="UTF-8"?>
<svg id="Layer_1" xmlns="http://www.w3.org/2000/svg" viewBox="0 0 200 200">
  <defs>
    <style>
      .cls-1 {
        fill: #fff;
      }
    </style>
  </defs>
  <path class="cls-1" d="M200,200H0V0h200v200ZM184.17,167.24c-.24-5.37-.6-9.98-.63-14.6-.09-16.85-3.33-33.68-.29-50.57.23-1.3-1.06-3.19-2.13-4.36-2.34-2.55-4.41-5.09-3.17-8.8,1.1-3.28,2.43-6.48,3.6-9.74,2.72-7.61,5.7-15.14,8.02-22.87,1.79-5.96-4.4-13.46-10.54-13.46-7.46,0-14.92-.08-22.38.02-8.44.11-17.15-.91-25.25.86-10.55,2.31-20.54,7.07-30.89,10.38-3.12,1-7.34,2.02-9.88.73-7.13-3.61-13.75-3.85-20.78-.36-1.13.56-2.59.47-3.9.67-7.39,1.16-9.97-.4-12.25-7.41-3.76-11.54-4.71-12.22-16.92-11.99-1.66.03-3.31.19-4.97.15-2.8-.06-4.16,1.01-4.31,4.03-.37,7.61-.84,15.22-1.6,22.8-1.53,15.3-2.56,30.71-5.2,45.82-1.74,10-6.11,19.52-8.88,29.37-.66,2.35.15,5.23.75,7.76.42,1.8,2.02,3.35,2.37,5.15.59,3.07.47,6.26.92,9.37.98,6.88,1.22,7.03,8.06,7.03,51.38,0,102.77,0,154.15,0h6.11Z"/>
  <path d="M184.17,167.24h-6.11c-51.38,0-102.77,0-154.15,0-6.84,0-7.08-.15-8.06-7.03-.44-3.11-.32-6.3-.92-9.37-.35-1.8-1.94-3.35-2.37-5.15-.59-2.53-1.4-5.41-.75-7.76,2.76-9.85,7.13-19.37,8.88-29.37,2.64-15.12,3.66-30.52,5.2-45.82.76-7.58,1.23-15.19,1.6-22.8.15-3.02,1.51-4.09,4.31-4.03,1.65.03,3.31-.12,4.97-.15,12.21-.22,13.16.46,16.92,11.99,2.28,7.01,4.86,8.57,12.25,7.41,1.31-.2,2.77-.11,3.9-.67,7.03-3.5,13.65-3.26,20.78.36,2.55,1.29,6.76.27,9.88-.73,10.36-3.31,20.35-8.07,30.89-10.38,8.09-1.77,16.81-.76,25.25-.86,7.46-.09,14.92-.02,22.38-.02,6.14,0,12.33,7.5,10.54,13.46-2.32,7.73-5.29,15.26-8.02,22.87-1.17,3.26-2.5,6.46-3.6,9.74-1.24,3.71.83,6.24,3.17,8.8,1.07,1.17,2.36,3.06,2.13,4.36-3.04,16.89.2,33.72.29,50.57.02,4.61.39,9.23.63,14.6Z"/>
</svg>