<?xml version="1.0" encoding="UTF-8"?>
<svg id="Layer_1" xmlns="http://www.w3.org/2000/svg" viewBox="0 0 221.46 221.47">
  <defs>
    <style>
      .cls-1 {
        fill: #fff;
        font-family: SFPro-Black, 'SF Pro';
        font-size: 32px;
        font-variation-settings: 'opsz' 28, 'wght' 1000;
        font-weight: 800;
      }
    </style>
  </defs>
  <text class="cls-1" transform="translate(78.15 33.17) rotate(-15.44)"><tspan x="0" y="0">S</tspan></text>
  <text class="cls-1" transform="translate(97.55 27.49) rotate(-.99)"><tspan x="0" y="0">C</tspan></text>
  <text class="cls-1" transform="translate(119.91 27.06) rotate(13.75)"><tspan x="0" y="0">R</tspan></text>
  <text class="cls-1" transform="translate(139.95 31.6) rotate(28.72)"><tspan x="0" y="0">O</tspan></text>
  <text class="cls-1" transform="translate(160.46 43.13) rotate(42.43)"><tspan x="0" y="0">L</tspan></text>
  <text class="cls-1" transform="translate(173.05 54.49) rotate(54.06)"><tspan x="0" y="0">L</tspan></text>
  <text class="cls-1" transform="translate(182.87 68.65) rotate(61.88)"><tspan x="0" y="0"> </tspan></text>
  <text class="cls-1" transform="translate(186.04 72.96) rotate(71.3)"><tspan x="0" y="0">D</tspan></text>
  <text class="cls-1" transform="translate(193.31 93.52) rotate(86.59)"><tspan x="0" y="0">O</tspan></text>
  <text class="cls-1" transform="translate(195.58 116.05) rotate(104.55)"><tspan x="0" y="0">W</tspan></text>
  <text class="cls-1" transform="translate(187.42 145.62) rotate(122.41)"><tspan x="0" y="0">N</tspan></text>
  <text class="cls-1" transform="translate(174.85 164.23) rotate(131.87)"><tspan x="0" y="0"> </tspan></text>
  <text class="cls-1" transform="translate(171.68 168.61) rotate(140.27)"><tspan x="0" y="0">T</tspan></text>
  <text class="cls-1" transform="translate(158.45 180.34) rotate(154.05)"><tspan x="0" y="0">O</tspan></text>
  <text class="cls-1" transform="translate(136.75 190.09) rotate(163.97)"><tspan x="0" y="0"> </tspan></text>
  <text class="cls-1" transform="translate(131.85 192.29) rotate(173.32)"><tspan x="0" y="0">V</tspan></text>
  <text class="cls-1" transform="translate(109.74 194.35) rotate(-176)"><tspan x="0" y="0">I</tspan></text>
  <text class="cls-1" transform="translate(100.78 194.16) rotate(-166.66)"><tspan x="0" y="0">E</tspan></text>
  <text class="cls-1" transform="translate(83.23 191.16) rotate(-150.19)"><tspan x="0" y="0">W</tspan></text>
  <text class="cls-1" transform="translate(56.97 174.65) rotate(-137.89)"><tspan x="0" y="0"> </tspan></text>
  <text class="cls-1" transform="translate(52.52 171.71) rotate(-128.31)"><tspan x="0" y="0">C</tspan></text>
  <text class="cls-1" transform="translate(38.47 154.34) rotate(-112.61)"><tspan x="0" y="0">O</tspan></text>
  <text class="cls-1" transform="translate(29.39 132.73) rotate(-97.24)"><tspan x="0" y="0">N</tspan></text>
  <text class="cls-1" transform="translate(26.66 110.77) rotate(-83.21)"><tspan x="0" y="0">T</tspan></text>
  <text class="cls-1" transform="translate(28.82 92.09) rotate(-70.63)"><tspan x="0" y="0">E</tspan></text>
  <text class="cls-1" transform="translate(34.37 75.11) rotate(-57.03)"><tspan x="0" y="0">N</tspan></text>
  <text class="cls-1" transform="translate(46.44 56.6) rotate(-43.14)"><tspan x="0" y="0">T</tspan></text>
  <text class="cls-1" transform="translate(60.7 43.85) rotate(-34.71)"><tspan x="0" y="0"> </tspan></text>
  <text class="cls-1" transform="translate(65.04 40.5) rotate(-28.04)"><tspan x="0" y="0">-</tspan></text>
</svg>